<svg xmlns="http://www.w3.org/2000/svg" viewBox="0 0 15.13 15.18"><defs><style>.cls-1{fill:#000;}</style></defs><title>close_1</title><g id="Layer_2" data-name="Layer 2"><g id="Layer_1-2" data-name="Layer 1"><path class="cls-1" d="M14.82,13.36,9.05,7.59l5.77-5.77a1.06,1.06,0,0,0,0-1.51,1.08,1.08,0,0,0-1.51,0L7.57,6.06,1.82.31A1.08,1.08,0,0,0,.31.31h0a1.08,1.08,0,0,0,0,1.51L6.08,7.59.31,13.36a1.06,1.06,0,0,0,1.51,1.5L7.57,9.12l5.75,5.74a1.05,1.05,0,0,0,1.5,0h0A1.05,1.05,0,0,0,14.82,13.36Z"/></g></g></svg>