<?xml version="1.0" encoding="utf-8"?>
<!-- Generator: Adobe Illustrator 24.1.2, SVG Export Plug-In . SVG Version: 6.00 Build 0)  -->
<svg version="1.1" id="Layer_1" xmlns="http://www.w3.org/2000/svg" xmlns:xlink="http://www.w3.org/1999/xlink" x="0px" y="0px"
	 viewBox="0 0 15.1 15.2" style="enable-background:new 0 0 15.1 15.2;" xml:space="preserve">
<style type="text/css">
	.st0{fill:#FFFFFF;}
</style>
<g id="Layer_2_2_">
	<g id="Layer_1-2_1_">
		<path class="st0" d="M11.2,12.3c-0.3,0-0.6-0.1-0.8-0.3L7.6,9.1L4.8,12c-0.2,0.2-0.5,0.3-0.8,0.3c-0.3,0-0.6-0.1-0.8-0.3
			c-0.4-0.4-0.4-1.1,0-1.5L6,7.6L3.2,4.8c-0.4-0.4-0.4-1.1,0-1.5C3.4,3,3.7,2.9,4,2.9c0.3,0,0.6,0.1,0.8,0.3L7.6,6l2.8-2.8
			c0.2-0.2,0.5-0.3,0.8-0.3c0.3,0,0.6,0.1,0.8,0.3c0.4,0.4,0.4,1.1,0,1.5L9.1,7.6l2.9,2.9c0.2,0.2,0.3,0.4,0.2,0.7
			c0,0.3-0.1,0.6-0.3,0.8L11.8,12C11.7,12.2,11.4,12.3,11.2,12.3z"/>
	</g>
</g>
</svg>
