<svg xmlns="http://www.w3.org/2000/svg" viewBox="0 0 18.49 15.92"><defs><style>.cls-1{fill:#fff;}</style></defs><title>filled-heart</title><g id="Layer_2" data-name="Layer 2"><g id="Layer_1-2" data-name="Layer 1"><path class="cls-1" d="M15.94,9.47l-6.25,6a.62.62,0,0,1-.44.18.63.63,0,0,1-.45-.18l-6.26-6C2.46,9.38.25,7.36.25,5,.25,2,2.05.25,5.05.25c1.76,0,3.4,1.38,4.2,2.17C10,1.63,11.69.25,13.44.25c3,0,4.8,1.76,4.8,4.7C18.24,7.36,16,9.38,15.94,9.47Z"/><path class="cls-1" d="M9.25,15.92a.87.87,0,0,1-.62-.25l-6.26-6S0,7.52,0,5C0,1.85,1.89,0,5.05,0a6.76,6.76,0,0,1,4.2,2.07A6.71,6.71,0,0,1,13.44,0c3.16,0,5,1.85,5,5,0,2.24-1.8,4.15-2.35,4.68l-.2-.16.18.18-6.26,6A.86.86,0,0,1,9.25,15.92ZM5.05.5C2.2.5.5,2.16.5,5c0,2.31,2.18,4.29,2.2,4.31L9,15.31a.38.38,0,0,0,.53,0l6.28-6C16.31,8.77,18,7,18,5,18,2.16,16.29.5,13.44.5c-1.65,0-3.23,1.31-4,2.1l-.17.17L9.07,2.6C8.28,1.81,6.7.5,5.05.5Z"/></g></g></svg>