<svg xmlns="http://www.w3.org/2000/svg" viewBox="0 0 18.49 15.92"><defs><style>.cls-1{fill:#fff;}</style></defs><title>heart</title><g id="Layer_2" data-name="Layer 2"><g id="Layer_1-2" data-name="Layer 1"><path class="cls-1" d="M18.49,5c0-3.1-1.89-4.95-5-4.95A6.71,6.71,0,0,0,9.25,2.07,6.76,6.76,0,0,0,5.05,0C1.89,0,0,1.85,0,5,0,7.52,2.35,9.61,2.37,9.63l6.26,6a.88.88,0,0,0,1.23,0l6.26-6-.18-.18.2.16C16.69,9.1,18.49,7.19,18.49,5Zm-5-3.16c2.17,0,3.27,1.06,3.27,3.16,0,1.63-1.62,3.21-1.81,3.39L9.25,13.79,3.58,8.33C3.4,8.15,1.79,6.58,1.79,5c0-2.1,1.09-3.16,3.26-3.16,1.4,0,3,1.59,3.51,2.14a.94.94,0,0,0,1.37,0C10.4,3.38,12.05,1.79,13.44,1.79Z"/></g></g></svg>