<?xml version="1.0" encoding="utf-8"?>
<!-- Generator: Adobe Illustrator 24.2.3, SVG Export Plug-In . SVG Version: 6.00 Build 0)  -->
<svg version="1.1" id="Layer_1" xmlns="http://www.w3.org/2000/svg" xmlns:xlink="http://www.w3.org/1999/xlink" x="0px" y="0px"
	 viewBox="0 0 1000 1000" style="enable-background:new 0 0 1000 1000;" xml:space="preserve">
<style type="text/css">
	.st0{fill:#0409ff;}
</style>
<g>
	<path id="LinkedIn__x28_alt_x29_" class="st0" d="M353.9,748.8H242.6V416.3h111.3V748.8z M298.3,370.9h-0.8
		c-37.4,0-61.5-25.6-61.5-57.5c0-32.6,24.9-57.4,63-57.4c38,0,61.5,24.8,62.2,57.4C361.2,345.4,337.1,370.9,298.3,370.9z
		 M755.1,748.8H643.9V570.9c0-44.7-16.2-75.2-56.4-75.2c-30.8,0-49.1,20.6-57,40.4c-3,7.1-3.7,17-3.7,26.9v185.7H415.5
		c0,0,1.4-301.4,0-332.6h111.2v47.1c14.8-22.6,41.2-54.9,100.3-54.9c73.2,0,128.1,47.5,128.1,149.7V748.8L755.1,748.8z M526,464.5
		c0.2-0.3,0.5-0.7,0.8-1.1v1.1H526z"/>
</g>
<g id="Page-1">
	<g id="_x35_9af0772394e2fbb2a56e2bf498df08d" transform="translate(-194.000000, -1176.000000)">
		<g id="vimeo" transform="translate(194.000000, 1176.000000)">
			<path id="Shape" class="st0" d="M795.6,101.6c24.7,0,44.9,9,65.1,26.9c18,18,26.9,38.2,26.9,65.1v601.8c0,24.7-9,44.9-26.9,65.1
				c-18,18-38.2,26.9-65.1,26.9H196.1c-24.7,0-44.9-9-65.1-26.9c-18-20.2-26.9-40.4-26.9-65.1V193.7c0-24.7,9-44.9,26.9-65.1
				c20.2-18,40.4-26.9,65.1-26.9H795.6 M795.6,11.8H196.1c-49.4,0-92.1,18-128,53.9s-53.9,78.6-53.9,128v601.8
				c0,49.4,18,92.1,53.9,128c35.9,35.9,78.6,53.9,128,53.9h599.5c49.4,0,92.1-18,128-53.9c35.9-35.9,53.9-78.6,53.9-128V193.7
				c0-49.4-18-92.1-53.9-128S845,11.8,795.6,11.8L795.6,11.8z"/>
		</g>
	</g>
</g>
</svg>
