<?xml version="1.0" encoding="UTF-8" standalone="no"?>
<!DOCTYPE svg PUBLIC "-//W3C//DTD SVG 1.1//EN" "http://www.w3.org/Graphics/SVG/1.1/DTD/svg11.dtd">
<svg width="100%" height="100%" viewBox="0 0 17 16" version="1.1" xmlns="http://www.w3.org/2000/svg" xmlns:xlink="http://www.w3.org/1999/xlink" xml:space="preserve" xmlns:serif="http://www.serif.com/" style="fill-rule:evenodd;clip-rule:evenodd;stroke-linejoin:round;stroke-miterlimit:2;">
    <g id="Artboard1" transform="matrix(1.910496,0,0,1,0,0)">
        <rect x="0" y="0" width="8.65" height="15.18" style="fill:none;"/>
        <g id="Layer_2" transform="matrix(0,-1,0.523424,0,0.387119,11.919757)">
            <g id="Layer_1-2">
                <path d="M0.31,0.31C0.727,-0.098 1.403,-0.098 1.82,0.31L7.59,6.08L8.34,6.84C8.541,7.037 8.655,7.308 8.655,7.59C8.655,7.872 8.541,8.143 8.34,8.34L1.82,14.86C1.621,15.062 1.349,15.176 1.065,15.176C0.781,15.176 0.509,15.062 0.31,14.86C-0.097,14.446 -0.097,13.774 0.31,13.36L6.08,7.59L0.31,1.82C-0.098,1.403 -0.098,0.727 0.31,0.31Z" style="fill-rule:nonzero;"/>
            </g>
        </g>
    </g>
</svg>
