<?xml version="1.0" encoding="utf-8"?>
<!-- Generator: Adobe Illustrator 24.2.3, SVG Export Plug-In . SVG Version: 6.00 Build 0)  -->
<svg version="1.1" id="Layer_1" xmlns="http://www.w3.org/2000/svg" xmlns:xlink="http://www.w3.org/1999/xlink" x="0px" y="0px"
	 viewBox="0 0 512 512" style="enable-background:new 0 0 512 512;" xml:space="preserve">
<style type="text/css">
	.st0{fill:#0409FF;}
</style>
<g>
	<path class="st0" d="M335.2,94.3c12.9,0,24.8,2.5,35.7,7.6c8.9,4.1,16.9,9.3,24.1,15.6c2.5,2.2,5.7,3.4,8.9,3.4c1,0,2-0.1,3-0.3
		c14.8-3.4,28.7-8.6,41.9-15.5c0.5-0.3,1-0.4,1.5-0.4c2.1,0,3.8,2.2,2.9,4.4c-5.9,13.8-14.9,25.4-27,34.7c-1.9,1.4-0.8,4.3,1.4,4.3
		c0.2,0,0.3,0,0.5,0c9.9-1.9,19.9-4.8,29.8-8.5c0.4-0.1,0.8-0.2,1.1-0.2c2.4,0,4.2,2.9,2.5,5.1c-9.4,12.2-20.2,23.1-32.2,32.8
		c-3.4,2.7-5.3,6.8-5.1,11.1c0.1,1.3,0.1,2.8,0.1,4.4c0,40.4-9.8,79.3-29.4,116.9c-20.2,39.8-48.5,71.5-84.9,95
		c-39.8,26.3-85.5,39.5-137.1,39.5c-42.1,0-81.1-9.6-117.1-28.8c-4.8-2.6-3-9.9,2.5-9.9c0,0,0,0,0,0c0.1,0,0.2,0,0.2,0
		c36.5,0,69.7-10,99.5-30.1c3.6-2.4,2.3-8-2-8.5c-14.5-2-27.5-7.4-39.1-16.4c-13-10-22.4-22.3-28.3-36.8c-1.2-2.9,1-6,4-6
		c0.1,0,0.2,0,0.3,0c3.2,0.2,6.3,0.3,9.3,0.3c0.1,0,0.2,0,0.2,0c5.5,0,7.2-7.5,2.2-9.9c-11.1-5.6-20.9-13.5-29.4-23.7
		c-11.6-14-18.2-29.7-19.8-47c-0.3-3.3,2.3-5.9,5.4-5.9c0.6,0,1.2,0.1,1.9,0.3c4.4,1.6,9.7,3.4,13.3,4.4c0.5,0.1,1,0.2,1.5,0.2
		c4.4,0,7-5.4,3.7-8.9c-5.8-6-10.9-12.8-15.2-20.4c-7.3-12.9-10.9-27-10.9-42.5c0-10.1,1.8-19.9,5.4-29.3c1.6-4.2,5.5-6.6,9.5-6.6
		c2.7,0,5.4,1.1,7.5,3.3c19.9,22.1,43.4,40.1,70.5,54c27.6,14.2,56.8,22.8,87.6,25.9c0.4,0,0.8,0.1,1.1,0.1
		c6.3,0,11.5-5.3,11.1-11.7c-0.2-2.5-0.2-5-0.2-7.5c0-15.7,3.9-30.4,11.8-44.1c7.8-13.7,18.5-24.5,32-32.4
		C304.9,98.3,319.5,94.3,335.2,94.3 M335.2,45.1c-24.4,0-47.5,6.2-68.5,18.5c-21,12.3-37.8,29.2-49.9,50.5
		c-5.7,10-10.1,20.5-13.2,31.4c-11.3-3.4-22.3-7.9-32.9-13.3C149,121,130,106.4,114.2,88.9C103,76.4,86.9,69.2,70.1,69.2
		c-11.8,0-23.1,3.4-32.9,9.9C26.8,86.1,19,95.9,14.5,107.6c-5.7,15-8.6,30.8-8.6,46.8c0,15.8,2.5,30.9,7.5,45.2
		c-5.5,9.7-8,20.9-6.9,32.1C9,259.1,19.4,284,37.4,305.7c0.6,0.7,1.2,1.4,1.8,2.2c-0.6,8.2,0.6,16.5,3.8,24.4
		c3.5,8.5,7.7,16.5,12.7,24c-24,1.1-44.5,17.8-50.4,41.3c-6.1,24.3,5.1,49.5,27.2,61.3c43,22.9,90.2,34.6,140.3,34.6
		c61.1,0,116.2-16,164-47.6c43.5-28.2,77.7-66.4,101.8-113.7c21.3-40.8,32.9-83.8,34.7-127.8c9.8-9.1,18.9-19.1,27.1-29.7
		c12.3-15.9,14.4-37,5.6-55.1c-1.1-2.2-2.3-4.2-3.6-6.2c1.2-11.9-1.6-24-8.4-34.2c-9.7-14.8-26.1-23.6-43.8-23.6
		c-8.4,0-16.7,2-24.2,5.9c-4.8,2.5-9.9,4.7-15.1,6.6c-6.2-4.1-12.8-7.7-19.6-10.8C374.2,49.1,355.2,45.1,335.2,45.1L335.2,45.1z"/>
</g>
</svg>
