<?xml version="1.0" encoding="utf-8"?>
<!-- Generator: Adobe Illustrator 25.4.1, SVG Export Plug-In . SVG Version: 6.00 Build 0)  -->
<svg version="1.1" id="Layer_1" xmlns="http://www.w3.org/2000/svg" xmlns:xlink="http://www.w3.org/1999/xlink" x="0px" y="0px"
	 viewBox="0 0 512 512" style="enable-background:new 0 0 512 512;" xml:space="preserve">
<style type="text/css">
	.st0{fill:#0409FF;}
</style>
<path class="st0" d="M406.4,245.9H164.9V172l0.1,0v-9.9c0-46.4,37.8-84.2,84.2-84.2c46.4,0,84.2,37.8,84.2,84.2v10h0.1
	c0.2,18.8,15.5,34.1,34.4,34.1h2.1c19,0,34.4-15.4,34.4-34.4v-9.7c0-41.4-16.1-80.4-45.5-109.7C329.6,23.1,290.7,7,249.2,7
	c0,0-0.1,0-0.1,0c-85.5,0-155,70.3-155,156.5v82.4h-2c-25.3,0-45.9,20.5-45.9,45.9v167.3c0,25.3,20.5,45.9,45.9,45.9h314.3
	c25.3,0,45.9-20.5,45.9-45.9V291.8C452.2,266.5,431.7,245.9,406.4,245.9z"/>
</svg>
