<?xml version="1.0" encoding="utf-8"?>
<!-- Generator: Adobe Illustrator 24.2.3, SVG Export Plug-In . SVG Version: 6.00 Build 0)  -->
<svg version="1.1" id="Layer_1" xmlns="http://www.w3.org/2000/svg" xmlns:xlink="http://www.w3.org/1999/xlink" x="0px" y="0px"
	 viewBox="0 0 43 43" style="enable-background:new 0 0 43 43;" xml:space="preserve">
<style type="text/css">
	.st0{fill:#0409ff;}
</style>
<desc>Created with Sketch.</desc>
<g id="Page-1">
	<g id="_x35_9af0772394e2fbb2a56e2bf498df08d" transform="translate(-194.000000, -1176.000000)">
		<g id="vimeo" transform="translate(194.000000, 1176.000000)">
			<path id="Shape" class="st0" d="M34.8,4c1.1,0,2,0.4,2.9,1.2c0.8,0.8,1.2,1.7,1.2,2.9v26.8c0,1.1-0.4,2-1.2,2.9
				c-0.8,0.8-1.7,1.2-2.9,1.2H8.1c-1.1,0-2-0.4-2.9-1.2C4.4,36.9,4,36,4,34.9V8.1c0-1.1,0.4-2,1.2-2.9C6.1,4.4,7,4,8.1,4H34.8
				 M34.8,0H8.1C5.9,0,4,0.8,2.4,2.4C0.8,4,0,5.9,0,8.1v26.8c0,2.2,0.8,4.1,2.4,5.7C4,42.2,5.9,43,8.1,43h26.7
				c2.2,0,4.1-0.8,5.7-2.4c1.6-1.6,2.4-3.5,2.4-5.7V8.1c0-2.2-0.8-4.1-2.4-5.7C38.9,0.8,37,0,34.8,0L34.8,0z"/>
		</g>
	</g>
</g>
<path class="st0" d="M27.1,13.4c0.1,0,0.1,0,0.2,0c1.9,0.1,2.8,1.3,2.7,3.7c-0.1,1.8-1.3,4.3-3.8,7.6c-2.5,3.3-4.7,5-6.5,5
	c-1.1,0-2-1-2.8-3c-0.2-0.6-0.4-1.6-0.8-2.8c-0.4-1.2-0.6-2.2-0.8-2.8c-0.5-2-1.1-3-1.8-3c-0.1,0-0.6,0.3-1.5,0.9l-0.9-1.1
	c0.3-0.2,0.8-0.7,1.4-1.2c0.6-0.5,1.1-1,1.4-1.2c1.2-1,2.1-1.6,2.8-1.7c0.1,0,0.2,0,0.3,0c1.3,0,2.1,1,2.4,3
	c0.4,2.2,0.7,3.7,0.8,4.3c0.4,1.9,0.9,2.8,1.4,2.8c0.4,0,1-0.7,1.8-1.9c0.8-1.3,1.2-2.2,1.3-2.8c0.1-1.1-0.3-1.6-1.3-1.6
	c-0.4,0-0.9,0.1-1.4,0.3C22.9,14.9,24.6,13.4,27.1,13.4"/>
</svg>
